HIERARCHY
ROOT Hips
{
	OFFSET 50.819599 -12.174116 100.481003
	CHANNELS 6 Xposition Yposition Zposition Xrotation Yrotation Zrotation
	JOINT spine
	{
		OFFSET 0.000000 -0.507026 8.817047
		CHANNELS 3 Xrotation Yrotation Zrotation
		JOINT spine1
		{
			OFFSET 0.000000 -0.000002 10.776596
			CHANNELS 3 Xrotation Yrotation Zrotation
			JOINT spine2
			{
				OFFSET 0.000000 -0.000001 10.325897
				CHANNELS 3 Xrotation Yrotation Zrotation
				JOINT Neck
				{
					OFFSET 0.000000 -1.263955 26.511002
					CHANNELS 3 Xrotation Yrotation Zrotation
					JOINT Head
					{
						OFFSET 0.000000 -0.000001 8.009659
						CHANNELS 3 Xrotation Yrotation Zrotation
						End Site
						{
							OFFSET 0.000000 6.393857 19.387894
						}
					}
				}
				JOINT RightShoulder
				{
					OFFSET -4.347950 0.605420 11.151199
					CHANNELS 3 Xrotation Yrotation Zrotation
					JOINT RightArm
					{
						OFFSET 0.000000 -0.000003 14.625793
						CHANNELS 3 Xrotation Yrotation Zrotation
						JOINT RightArmRoll
						{
							OFFSET 0.000000 -0.000001 7.383408
							CHANNELS 3 Xrotation Yrotation Zrotation
							JOINT RightForeArm
							{
								OFFSET 0.000000 -0.000004 21.505203
								CHANNELS 3 Xrotation Yrotation Zrotation
								JOINT RightForeArmRoll
								{
									OFFSET 0.000000 -0.000001 8.285324
									CHANNELS 3 Xrotation Yrotation Zrotation
									JOINT RightHand
									{
										OFFSET 0.000000 -0.000003 16.626801
										CHANNELS 3 Xrotation Yrotation Zrotation
										End Site
										{
											OFFSET 0.000000 0.000000 0.100006
										}
									}
								}
							}
						}
					}
				}
				JOINT LeftShoulder
				{
					OFFSET 4.347950 0.605420 11.151199
					CHANNELS 3 Xrotation Yrotation Zrotation
					JOINT LeftArm
					{
						OFFSET 0.000000 -0.000003 14.625793
						CHANNELS 3 Xrotation Yrotation Zrotation
						JOINT LeftArmRoll
						{
							OFFSET 0.000000 -0.000001 7.383408
							CHANNELS 3 Xrotation Yrotation Zrotation
							JOINT LeftForeArm
							{
								OFFSET 0.000000 -0.000004 21.505203
								CHANNELS 3 Xrotation Yrotation Zrotation
								JOINT LeftForeArmRoll
								{
									OFFSET 0.000000 -0.000001 8.285324
									CHANNELS 3 Xrotation Yrotation Zrotation
									JOINT LeftHand
									{
										OFFSET 0.000000 -0.000003 16.626801
										CHANNELS 3 Xrotation Yrotation Zrotation
										End Site
										{
											OFFSET 0.000000 0.000000 0.100006
										}
									}
								}
							}
						}
					}
				}
			}
		}
	}
	JOINT RightUpLeg
	{
		OFFSET -7.815102 1.202170 -1.433090
		CHANNELS 3 Xrotation Yrotation Zrotation
		JOINT RightUpLegRoll
		{
			OFFSET 0.000000 -0.000003 19.495895
			CHANNELS 3 Xrotation Yrotation Zrotation
			JOINT RightLeg
			{
				OFFSET 0.000000 0.000004 -24.142700
				CHANNELS 3 Xrotation Yrotation Zrotation
				JOINT RightLegRoll
				{
					OFFSET 0.000000 -0.000004 24.221703
					CHANNELS 3 Xrotation Yrotation Zrotation
					JOINT RightFoot
					{
						OFFSET 0.000000 -0.000004 20.160500
						CHANNELS 3 Xrotation Yrotation Zrotation
						JOINT RightToeBase
						{
							OFFSET 0.000000 -0.000003 16.853195
							CHANNELS 3 Xrotation Yrotation Zrotation
							End Site
							{
								OFFSET 0.007145 0.940779 8.161865
							}
						}
					}
				}
			}
		}
	}
	JOINT LeftUpLeg
	{
		OFFSET 7.815102 1.202170 -1.433090
		CHANNELS 3 Xrotation Yrotation Zrotation
		JOINT LeftUpLegRoll
		{
			OFFSET 0.000000 -0.000003 19.496002
			CHANNELS 3 Xrotation Yrotation Zrotation
			JOINT LeftLeg
			{
				OFFSET 0.000000 -0.000004 24.142593
				CHANNELS 3 Xrotation Yrotation Zrotation
				JOINT LeftLegRoll
				{
					OFFSET 0.000000 -0.000005 24.445602
					CHANNELS 3 Xrotation Yrotation Zrotation
					JOINT LeftFoot
					{
						OFFSET 0.000000 -0.000003 19.936600
						CHANNELS 3 Xrotation Yrotation Zrotation
						JOINT LeftToeBase
						{
							OFFSET 0.000000 -0.000003 16.853195
							CHANNELS 3 Xrotation Yrotation Zrotation
							End Site
							{
								OFFSET -0.032013 0.940779 8.161865
							}
						}
					}
				}
			}
		}
	}
}
MOTION
Frames: 7
Frame Time: 0.041667
46.184902 -12.323919 100.118996 -2.902712 -2.092623 23.291217 -1.163361 -0.411744 0.168093 1.689795 -0.825161 0.330602 3.334943 -0.821141 0.340469 17.143747 -4.633268 13.734099 -4.191644 27.274941 11.736302 0.145848 -52.331615 0.955666 142.096458 -24.877557 68.956688 0.000021 0.000014 0.000005 72.967635 -9.975870 9.464211 -0.000001 0.000017 -3.004061 -4.999656 -7.998884 -0.000157 -11.927932 57.264910 14.022714 78.224661 72.440440 -28.900764 -0.000001 -0.000005 0.000002 74.675052 6.943307 -4.302030 0.000013 -0.000006 2.999989 -4.999718 7.999278 0.000055 -1.709893 -177.029324 0.804408 -179.999991 0.000005 -1.171004 164.257170 -1.665143 -0.919317 0.000000 -0.000001 0.339448 73.780509 6.775281 2.093845 25.887479 -7.351807 0.650402 -4.931162 172.589222 0.677610 -0.000005 -0.000004 -1.188792 -17.895010 0.569295 0.719476 -0.000004 0.000001 -0.401606 71.486242 -6.827256 -2.137818 26.396636 7.332685 -1.337499 
46.137009 -12.333320 100.121994 -2.882771 -2.120974 23.349521 -1.164142 -0.408544 0.168542 1.687332 -0.818762 0.330056 3.332468 -0.814750 0.339842 17.138388 -4.627645 13.722098 -4.198398 27.261759 11.727071 0.149671 -52.372808 0.954759 142.067183 -25.059409 68.975690 0.000022 0.000015 0.000003 73.038259 -9.913197 9.420931 -0.000001 0.000017 -3.004059 -4.999655 -7.998886 -0.000156 -11.906147 57.285975 13.997792 78.438958 72.397478 -29.122407 -0.000003 0.000001 -0.000001 74.737931 6.891787 -4.248344 0.000012 -0.000004 2.999990 -4.999721 7.999274 0.000051 -1.695079 -177.026291 0.805220 -179.999991 0.000005 -1.171002 164.287770 -1.667314 -0.917968 -0.000000 -0.000001 0.338619 73.777777 6.775242 2.093905 25.884648 -7.351816 0.647158 -5.005600 172.589059 0.673254 -0.000004 -0.000004 -1.189431 -17.946629 0.573747 0.722011 -0.000004 0.000002 -0.398082 71.407565 -6.829218 -2.137757 26.421125 7.331732 -1.371633 
46.086609 -12.331322 100.121994 -2.863462 -2.149376 23.407617 -1.164760 -0.405294 0.169025 1.685160 -0.812265 0.329512 3.330292 -0.808259 0.339221 17.132802 -4.624925 13.710471 -4.205030 27.251080 11.717990 0.152803 -52.414407 0.952956 142.037445 -25.239528 68.990607 0.000022 0.000015 0.000005 73.108808 -9.850974 9.377883 -0.000002 0.000017 -3.004060 -4.999655 -7.998887 -0.000154 -11.883394 57.306230 13.971678 78.653440 72.355151 -29.344023 -0.000001 -0.000003 -0.000001 74.801206 6.840329 -4.194414 0.000013 -0.000004 2.999990 -4.999722 7.999277 0.000053 -1.679390 -177.023286 0.805970 -179.999991 0.000006 -1.170009 164.318656 -1.670460 -0.917885 -0.000000 -0.000000 0.337770 73.774847 6.775251 2.093882 25.881620 -7.351812 0.644110 -5.078908 172.588895 0.668829 -0.000005 -0.000003 -1.190027 -17.997844 0.578147 0.724464 -0.000004 0.000000 -0.394595 71.329339 -6.831180 -2.137772 26.445412 7.330771 -1.405538 
46.038002 -12.347116 100.126984 -2.844604 -2.177805 23.465513 -1.165248 -0.402011 0.169551 1.683196 -0.805695 0.328976 3.328337 -0.801696 0.338609 17.127063 -4.624225 13.699150 -4.211569 27.242198 11.708985 0.155433 -52.456300 0.950517 142.007255 -25.418793 69.002211 0.000021 0.000013 0.000006 73.179330 -9.789105 9.334912 -0.000002 0.000016 -3.004061 -4.999658 -7.998884 -0.000155 -11.859938 57.325832 13.944678 78.868351 72.313187 -29.565929 -0.000001 -0.000000 0.000001 74.864727 6.788900 -4.140130 0.000012 0.000000 2.999991 -4.999719 7.999275 0.000055 -1.663102 -177.020253 0.806670 -179.999991 0.000006 -1.170005 164.349856 -1.672636 -0.917509 -0.000001 -0.000001 0.336919 73.771692 6.775250 2.093873 25.878487 -7.351812 0.641218 -5.151420 172.588731 0.664343 -0.000004 -0.000004 -1.190619 -18.048664 0.582511 0.726870 -0.000005 0.000001 -0.391140 71.251372 -6.833186 -2.137683 26.469490 7.329787 -1.439275 
45.988998 -12.343521 100.125992 -2.826004 -2.206226 23.523323 -1.165684 -0.398705 0.170086 1.681353 -0.799086 0.328445 3.326491 -0.795093 0.337995 17.121256 -4.624684 13.688078 -4.218067 27.234213 11.700059 0.157787 -52.498398 0.947719 141.977216 -25.596504 69.012805 0.000019 0.000013 0.000004 73.249776 -9.727520 9.291900 -0.000002 0.000018 -3.004061 -4.999656 -7.998886 -0.000155 -11.836068 57.345052 13.917181 79.082614 72.271297 -29.787090 -0.000000 0.000001 0.000001 74.928521 6.737563 -4.085794 0.000012 -0.000002 2.999993 -4.999720 7.999273 0.000058 -1.646452 -177.017234 0.807343 -179.999991 0.000006 -1.168997 164.381152 -1.675785 -0.917407 -0.000001 -0.000001 0.336054 73.768557 6.775277 2.093865 25.875362 -7.351812 0.638417 -5.223476 172.588567 0.659832 -0.000005 -0.000004 -1.191199 -18.099282 0.586854 0.729246 -0.000004 0.000000 -0.387700 71.173754 -6.835167 -2.137674 26.493580 7.328788 -1.472931 
45.944199 -12.355619 100.129990 -2.807486 -2.234616 23.581144 -1.166095 -0.395396 0.170620 1.679540 -0.792466 0.327914 3.324675 -0.788481 0.337384 17.115353 -4.625432 13.676885 -4.224550 27.226630 11.691137 0.160072 -52.540493 0.944838 141.947396 -25.773570 69.023248 0.000023 0.000011 0.000006 73.320237 -9.666148 9.248888 -0.000001 0.000018 -3.004060 -4.999654 -7.998888 -0.000154 -11.812082 57.364300 13.889542 79.296386 72.229182 -30.007750 -0.000000 -0.000003 -0.000003 74.992390 6.686335 -4.031192 0.000013 -0.000002 2.999990 -4.999720 7.999279 0.000057 -1.629724 -177.014215 0.808014 -179.999991 0.000005 -1.168995 164.412530 -1.677963 -0.917025 -0.000000 -0.000001 0.335188 73.765387 6.775248 2.093856 25.872121 -7.351817 0.635629 -5.295436 172.587419 0.655409 -0.000005 -0.000003 -1.191771 -18.149898 0.591188 0.731627 -0.000004 0.000001 -0.384262 71.096067 -6.837167 -2.137775 26.517653 7.327752 -1.506571 
45.918602 -12.349621 100.129982 -2.788845 -2.262957 23.639093 -1.166549 -0.392095 0.171154 1.677668 -0.785866 0.327377 3.322800 -0.781887 0.336774 17.109533 -4.625605 13.665727 -4.231053 27.218447 11.682185 0.162506 -52.582594 0.942141 141.917479 -25.951628 69.033719 0.000021 0.000012 0.000005 73.390943 -9.604775 9.205714 -0.000002 0.000018 -3.004059 -4.999656 -7.998886 -0.000157 -11.788247 57.383609 13.862087 79.508566 72.186685 -30.226821 0.000000 -0.000002 -0.000001 75.056259 6.635304 -3.976699 0.000011 -0.000005 2.999991 -4.999721 7.999279 0.000056 -1.613180 -177.011169 0.808700 -179.999991 0.000005 -1.168997 164.443730 -1.680152 -0.915650 0.000000 -0.000001 0.334324 73.762245 6.775275 2.093847 25.868993 -7.351812 0.632802 -5.367611 172.587283 0.650901 -0.000004 -0.000004 -1.192351 -18.200617 0.595528 0.734030 -0.000004 0.000001 -0.380823 71.018306 -6.839183 -2.137789 26.541731 7.326698 -1.540239 
